<svg xmlns="http://www.w3.org/2000/svg" viewBox="0 0 70 122">
  <ellipse cx="35" cy="116" rx="19" ry="4.5" fill="#00000022"/>
  <path d="M22 64 Q35 58 48 64 L57 106 Q35 114 13 106 Z" fill="#1f9d6b"/>
  <path d="M13 106 Q35 114 57 106 L55 99 Q35 106 15 99 Z" fill="#f2b705"/>
  <rect x="12" y="62" width="8" height="30" rx="4" fill="#c8824e" transform="rotate(14 16 68)"/>
  <rect x="50" y="50" width="8" height="26" rx="4" fill="#c8824e" transform="rotate(-30 54 56)"/>
  <path d="M27 60 Q35 67 43 60 L41 55 Q35 60 29 55 Z" fill="#f2b705"/>
  <rect x="31" y="49" width="8" height="11" rx="3" fill="#b5703c"/>
  <circle cx="35" cy="33" r="24" fill="#241a12"/>
  <circle cx="35" cy="36" r="17" fill="#c8824e"/>
  <path d="M18 31 Q23 15 35 15 Q47 15 52 31 Q44 24 35 25 Q26 24 18 31Z" fill="#241a12"/>
  <g transform="translate(50 24)"><circle r="5" fill="#f7c948" stroke="#d98a0b" stroke-width="1.4"/><circle r="1.6" fill="#d98a0b"/></g>
  <circle cx="29" cy="37" r="2.2" fill="#2a1b10"/><circle cx="41" cy="37" r="2.2" fill="#2a1b10"/>
  <circle cx="25.5" cy="43" r="2.6" fill="#e8967a" opacity=".6"/><circle cx="44.5" cy="43" r="2.6" fill="#e8967a" opacity=".6"/>
  <path d="M30 44 Q35 49 40 44" stroke="#7a4a2b" stroke-width="2" fill="none" stroke-linecap="round"/>
  <g transform="translate(55 38)">
    <circle r="14" fill="#f2b705" opacity=".28"/>
    <rect x="-9" y="-9" width="18" height="18" rx="5" fill="#fcf7ef" stroke="#f2b705" stroke-width="2"/>
    <rect x="-5" y="-4" width="10" height="3" rx="1.5" fill="#1f9d6b"/>
    <rect x="-5" y="1" width="7" height="3" rx="1.5" fill="#1f9d6b"/>
  </g>
</svg>
